<svg width="88" height="88" viewBox="0 0 88 88" fill="none" xmlns="http://www.w3.org/2000/svg">
<g filter="url(#filter0_dd_13_10573)">
<g clip-path="url(#clip0_13_10573)">
<rect x="12" y="10" width="64" height="64" rx="16" fill="#1B1D22"/>
<g opacity="0.8" filter="url(#filter1_f_13_10573)">
<ellipse cx="44.1486" cy="20.8769" rx="27.767" ry="28.6773" transform="rotate(-122.813 44.1486 20.8769)" fill="#0500FF"/>
</g>
<g opacity="0.8" filter="url(#filter2_f_13_10573)">
<ellipse cx="31.8816" cy="35.6624" rx="31.8816" ry="35.6624" transform="matrix(-0.331963 -0.943292 0.952371 -0.30494 -18.833 53)" fill="#456EFF"/>
</g>
<g opacity="0.8" filter="url(#filter3_f_13_10573)">
<path d="M80.5271 -16.0713C97.0433 -4.51898 84.4648 53.6487 78.0778 49.8262C74.1815 47.4943 69.5751 27.7687 57.3438 19.3154C49.5248 13.9115 35.5261 17.8547 26.6101 18.4123C3.7468 19.8423 63.8732 -27.72 80.5271 -16.0713Z" fill="#B62853"/>
</g>
<path d="M44 58.6667C53.2047 58.6667 60.6666 51.2047 60.6666 42C60.6666 32.7953 53.2047 25.3333 44 25.3333C34.7952 25.3333 27.3333 32.7953 27.3333 42C27.3333 51.2047 34.7952 58.6667 44 58.6667Z" stroke="white" stroke-width="2" stroke-linecap="round" stroke-linejoin="round"/>
</g>
</g>
<defs>
<filter id="filter0_dd_13_10573" x="0" y="0" width="88" height="88" filterUnits="userSpaceOnUse" color-interpolation-filters="sRGB">
<feFlood flood-opacity="0" result="BackgroundImageFix"/>
<feColorMatrix in="SourceAlpha" type="matrix" values="0 0 0 0 0 0 0 0 0 0 0 0 0 0 0 0 0 0 127 0" result="hardAlpha"/>
<feOffset dy="2"/>
<feGaussianBlur stdDeviation="6"/>
<feComposite in2="hardAlpha" operator="out"/>
<feColorMatrix type="matrix" values="0 0 0 0 0.6875 0 0 0 0 0.744318 0 0 0 0 1 0 0 0 0.06 0"/>
<feBlend mode="normal" in2="BackgroundImageFix" result="effect1_dropShadow_13_10573"/>
<feColorMatrix in="SourceAlpha" type="matrix" values="0 0 0 0 0 0 0 0 0 0 0 0 0 0 0 0 0 0 127 0" result="hardAlpha"/>
<feOffset dy="1"/>
<feGaussianBlur stdDeviation="1"/>
<feComposite in2="hardAlpha" operator="out"/>
<feColorMatrix type="matrix" values="0 0 0 0 0.549757 0 0 0 0 0.610463 0 0 0 0 0.929167 0 0 0 0.05 0"/>
<feBlend mode="normal" in2="effect1_dropShadow_13_10573" result="effect2_dropShadow_13_10573"/>
<feBlend mode="normal" in="SourceGraphic" in2="effect2_dropShadow_13_10573" result="shape"/>
</filter>
<filter id="filter1_f_13_10573" x="-8.26819" y="-31.1635" width="104.834" height="104.081" filterUnits="userSpaceOnUse" color-interpolation-filters="sRGB">
<feFlood flood-opacity="0" result="BackgroundImageFix"/>
<feBlend mode="normal" in="SourceGraphic" in2="BackgroundImageFix" result="shape"/>
<feGaussianBlur stdDeviation="12" result="effect1_foregroundBlur_13_10573"/>
</filter>
<filter id="filter2_f_13_10573" x="-55.0368" y="-43.9369" width="119.168" height="111.976" filterUnits="userSpaceOnUse" color-interpolation-filters="sRGB">
<feFlood flood-opacity="0" result="BackgroundImageFix"/>
<feBlend mode="normal" in="SourceGraphic" in2="BackgroundImageFix" result="shape"/>
<feGaussianBlur stdDeviation="12" result="effect1_foregroundBlur_13_10573"/>
</filter>
<filter id="filter3_f_13_10573" x="-2.51117" y="-41.9101" width="115.211" height="115.916" filterUnits="userSpaceOnUse" color-interpolation-filters="sRGB">
<feFlood flood-opacity="0" result="BackgroundImageFix"/>
<feBlend mode="normal" in="SourceGraphic" in2="BackgroundImageFix" result="shape"/>
<feGaussianBlur stdDeviation="12" result="effect1_foregroundBlur_13_10573"/>
</filter>
<clipPath id="clip0_13_10573">
<rect x="12" y="10" width="64" height="64" rx="16" fill="white"/>
</clipPath>
</defs>
</svg>
